<?xml version="1.0" standalone="no"?>
<!DOCTYPE svg PUBLIC "-//W3C//DTD SVG 20010904//EN"
 "http://www.w3.org/TR/2001/REC-SVG-20010904/DTD/svg10.dtd">
<svg version="1.0" xmlns="http://www.w3.org/2000/svg"
 width="1026.000000pt" height="1024.000000pt" viewBox="0 0 1026.000000 1024.000000"
 preserveAspectRatio="xMidYMid meet">
<metadata>
Created by potrace 1.16, written by Peter Selinger 2001-2019
</metadata>
<g transform="translate(0.000000,1024.000000) scale(0.100000,-0.100000)"
fill="#000000" stroke="none">
<path d="M3495 9570 c-638 -369 -1163 -674 -1168 -679 -5 -5 -33 -593 -63
-1307 -29 -714 -55 -1303 -58 -1309 -2 -6 -499 -325 -1105 -710 l-1101 -698 1
-1356 c0 -746 4 -1347 8 -1336 5 11 138 493 296 1070 159 578 293 1053 299
1057 37 24 2028 879 2038 875 7 -3 335 -249 728 -546 393 -298 720 -541 725
-541 9 0 420 233 433 245 2 2 -109 199 -247 439 -138 239 -251 437 -251 440 0
3 227 6 505 6 l505 0 0 253 0 254 -832 352 c-458 194 -837 357 -842 361 -5 5
-66 503 -135 1107 l-127 1098 280 287 c155 158 506 514 780 793 274 278 497
507 494 510 -2 3 -526 -297 -1163 -665z"/>
<path d="M5661 10174 c36 -38 387 -395 780 -794 703 -712 716 -726 712 -760
-90 -796 -252 -2172 -255 -2176 -3 -3 -381 -164 -839 -358 l-834 -354 -3 -251
-2 -251 509 -2 509 -3 -254 -440 c-140 -241 -250 -443 -246 -447 8 -8 422
-248 428 -248 2 0 318 237 702 527 383 290 711 537 727 549 l31 23 1019 -442
1020 -442 287 -1045 c158 -575 291 -1058 296 -1075 7 -20 9 444 8 1330 l-1
1359 -1100 698 c-687 436 -1101 705 -1103 716 -1 9 -27 599 -56 1310 -30 711
-56 1295 -58 1297 -9 9 -2309 1336 -2325 1342 -10 3 12 -25 48 -63z"/>
<path d="M4308 7073 c-445 -257 -808 -469 -808 -472 0 -12 723 -312 741 -308
10 3 211 122 447 266 237 144 435 261 440 261 6 0 208 -120 448 -266 279 -169
444 -264 455 -261 53 14 718 303 716 311 -4 12 -1604 936 -1620 936 -7 -1
-375 -211 -819 -467z"/>
<path d="M2600 4068 l0 -943 817 -473 c449 -259 817 -471 819 -470 1 2 -19
180 -46 397 -32 264 -52 397 -62 406 -7 6 -213 121 -458 255 -245 134 -446
244 -446 244 -1 1 2 150 6 331 5 182 10 416 12 522 l3 191 -319 241 c-175 133
-320 241 -322 241 -2 0 -4 -424 -4 -942z"/>
<path d="M7316 4773 l-318 -238 6 -230 c3 -126 9 -363 12 -525 l7 -295 -454
-249 c-250 -136 -456 -250 -457 -251 -6 -6 -100 -790 -96 -795 3 -2 13 0 22 6
9 6 374 216 810 468 l792 459 0 943 c0 519 -2 944 -3 944 -2 0 -147 -107 -321
-237z"/>
<path d="M4400 4064 l-215 -125 3 -42 c1 -23 50 -428 108 -900 58 -471 104
-863 101 -870 -4 -11 -1701 -1279 -1764 -1317 -19 -12 -141 18 -1083 264 -584
152 -1067 275 -1072 274 -12 -4 2295 -1341 2322 -1346 9 -2 520 261 1136 584
615 322 1135 594 1155 604 l36 19 1154 -605 c635 -332 1162 -603 1172 -602 26
4 2338 1343 2324 1346 -7 1 -201 -47 -432 -107 -231 -60 -705 -184 -1054 -275
-348 -91 -640 -166 -648 -166 -16 0 -1793 1317 -1793 1329 0 4 50 407 110 896
61 488 110 893 110 900 0 7 -98 70 -217 139 l-217 125 -16 -27 c-9 -15 -124
-213 -255 -440 l-238 -414 -17 29 c-10 15 -122 210 -250 433 -128 223 -235
408 -239 412 -3 4 -103 -49 -221 -118z"/>
</g>
</svg>
